<?xml version="1.0" encoding="iso-8859-1"?>
<!-- Generator: Adobe Illustrator 19.0.0, SVG Export Plug-In . SVG Version: 6.00 Build 0)  -->
<svg version="1.1" id="Capa_1" xmlns="http://www.w3.org/2000/svg" xmlns:xlink="http://www.w3.org/1999/xlink" x="0px" y="0px"
	 viewBox="0 0 512 512" style="enable-background:new 0 0 512 512;" xml:space="preserve">
<g>
	<g>
		<path d="M461.511,319.106c-3.314-4.971-8.604-8.325-14.513-9.204c-5.907-0.875-11.946,0.792-16.564,4.584l-28.042,23.036V41.268
			c0-2.646-1.035-5.044-2.712-6.833C388.302,11.781,342.83,0,297.831,0C245.871,0,193.27,15.705,193.27,45.723v95.22l-42.237-38.615
			c-8.571-7.837-21.402-8.635-30.506-1.9c-10.473,7.745-12.744,22.602-5.062,33.116l57.269,78.386l20.536,28.609V355.59H84.215
			c-24.469,0-37.271,39.342-37.271,78.205S59.746,512,84.215,512h238.112c12.727,0,22.296-10.646,28.551-26.331
			c16.821-4.06,40.367-12.413,48.595-28.346c1.804-1.809,2.92-4.305,2.92-7.062v-27.378l58.547-79.457
			C466.211,336.272,466.44,326.499,461.511,319.106z M297.831,20c52.111,0,81.644,15.409,84.337,24.418
			c0.066,0.202,0.113,0.397,0.149,0.589c0.042,0.243,0.074,0.484,0.074,0.716c0,8.73-29.847,25.723-84.561,25.723
			c-1.71,0-3.395-0.017-5.056-0.049c-43.188-0.843-69.857-12.382-77.337-21.073c-1.438-1.671-2.167-3.237-2.167-4.601
			C213.271,36.992,243.118,20,297.831,20z M94.213,478.311C90.077,488.653,85.691,492,84.215,492c-1.476,0-5.862-3.346-9.998-13.689
			c-4.622-11.56-7.273-27.786-7.273-44.516s2.651-32.956,7.273-44.516c4.136-10.343,8.522-13.689,9.998-13.689
			c1.476,0,5.863,3.347,9.998,13.689c4.622,11.56,7.273,27.785,7.273,44.516C101.486,450.526,98.835,466.751,94.213,478.311z
			 M339.569,436.783c-0.005,0.254-0.014,0.507-0.02,0.761c-0.018,0.754-0.038,1.508-0.067,2.258
			c-0.009,0.25-0.022,0.499-0.032,0.748c-0.033,0.777-0.07,1.552-0.115,2.324c-0.011,0.192-0.023,0.383-0.035,0.574
			c-0.053,0.862-0.111,1.722-0.178,2.577c-0.007,0.096-0.015,0.192-0.022,0.288c-0.562,7.032-1.59,13.771-3.03,19.877
			c-0.008,0.033-0.016,0.067-0.024,0.1c-0.189,0.799-0.386,1.585-0.59,2.362c-0.027,0.102-0.053,0.204-0.08,0.305
			c-0.188,0.709-0.383,1.407-0.583,2.096c-0.04,0.136-0.078,0.275-0.118,0.411c-0.197,0.669-0.402,1.325-0.61,1.973
			c-0.042,0.132-0.083,0.268-0.125,0.399c-0.509,1.559-1.048,3.056-1.617,4.48c-4.134,10.338-8.52,13.684-9.996,13.684H109.919
			c0.021-0.042,0.041-0.088,0.063-0.13c0.434-0.859,0.856-1.739,1.266-2.639c0.032-0.069,0.064-0.137,0.095-0.207
			c0.435-0.963,0.857-1.947,1.265-2.954c0.005-0.012,0.009-0.023,0.014-0.035c0.403-0.997,0.791-2.016,1.167-3.052
			c0.033-0.091,0.065-0.183,0.097-0.273c0.348-0.97,0.685-1.957,1.009-2.959c0.04-0.122,0.079-0.245,0.118-0.367
			c0.317-0.991,0.622-1.996,0.916-3.016c0.035-0.122,0.07-0.243,0.105-0.365c0.3-1.055,0.588-2.124,0.864-3.207
			c0.02-0.079,0.041-0.157,0.061-0.236c0.289-1.146,0.565-2.307,0.827-3.481c0.014-0.061,0.026-0.123,0.04-0.184
			c0.25-1.13,0.488-2.273,0.713-3.426c0.024-0.124,0.047-0.249,0.071-0.373c0.212-1.104,0.413-2.218,0.602-3.341
			c0.024-0.144,0.048-0.287,0.072-0.431c0.186-1.128,0.361-2.264,0.524-3.408c0.018-0.124,0.036-0.247,0.053-0.371
			c0.169-1.209,0.326-2.426,0.469-3.649c0.006-0.049,0.012-0.097,0.018-0.146c0.147-1.266,0.279-2.539,0.397-3.817
			c0.008-0.084,0.015-0.169,0.022-0.253c0.11-1.209,0.208-2.424,0.292-3.643c0.009-0.132,0.018-0.264,0.027-0.396
			c0.08-1.187,0.148-2.377,0.204-3.57c0.006-0.135,0.013-0.27,0.019-0.404c0.054-1.215,0.096-2.433,0.125-3.651
			c0.002-0.099,0.005-0.197,0.008-0.295c0.029-1.307,0.045-2.615,0.045-3.923c0-1.308-0.016-2.616-0.045-3.923
			c-0.002-0.099-0.005-0.197-0.008-0.295c-0.029-1.218-0.071-2.436-0.125-3.651c-0.006-0.135-0.013-0.27-0.019-0.404
			c-0.056-1.193-0.124-2.383-0.204-3.57c-0.009-0.132-0.017-0.264-0.027-0.396c-0.085-1.218-0.182-2.433-0.292-3.643
			c-0.008-0.084-0.015-0.169-0.022-0.253c-0.118-1.278-0.25-2.551-0.397-3.817c-0.006-0.049-0.012-0.097-0.018-0.146
			c-0.143-1.224-0.299-2.44-0.469-3.649c-0.017-0.124-0.036-0.247-0.053-0.371c-0.163-1.144-0.338-2.28-0.524-3.408
			c-0.024-0.144-0.048-0.288-0.072-0.431c-0.189-1.123-0.39-2.237-0.602-3.341c-0.024-0.125-0.047-0.249-0.071-0.373
			c-0.225-1.153-0.462-2.296-0.713-3.426c-0.014-0.062-0.026-0.123-0.04-0.184c-0.262-1.174-0.538-2.335-0.827-3.481
			c-0.02-0.079-0.041-0.157-0.061-0.236c-0.276-1.083-0.564-2.152-0.864-3.207c-0.035-0.122-0.07-0.243-0.105-0.365
			c-0.294-1.02-0.599-2.025-0.916-3.016c-0.039-0.123-0.078-0.245-0.118-0.367c-0.325-1.002-0.661-1.989-1.009-2.959
			c-0.033-0.091-0.065-0.183-0.097-0.273c-0.376-1.037-0.764-2.055-1.167-3.052c-0.005-0.012-0.009-0.023-0.014-0.035
			c-0.407-1.007-0.83-1.991-1.265-2.954c-0.031-0.07-0.064-0.138-0.095-0.207c-0.41-0.9-0.832-1.78-1.266-2.639
			c-0.021-0.042-0.041-0.088-0.063-0.13h93.352h119.056c1.476,0,5.862,3.347,9.998,13.689c4.622,11.56,7.273,27.785,7.273,44.516
			C339.598,434.797,339.587,435.792,339.569,436.783z M444.838,331.563l-60.497,82.104c-1.266,1.718-1.949,3.797-1.949,5.932v26.837
			c-0.094,0.226-0.179,0.457-0.257,0.691c-1.529,4.632-9.871,10.935-25.001,15.988c1.275-7.19,2.058-14.838,2.34-22.752
			c0.027-0.721,0.049-1.442,0.067-2.164c0.006-0.262,0.015-0.522,0.02-0.785c0.025-1.206,0.037-2.412,0.037-3.618
			c0-38.863-12.802-78.205-37.271-78.205H213.271V268.4l13.292,18.517c1.953,2.722,5.02,4.17,8.132,4.17
			c2.019,0,4.058-0.61,5.823-1.877c4.486-3.221,5.513-9.469,2.292-13.955l-30.227-42.11c-0.313-0.802-0.723-1.567-1.237-2.271
			l-79.73-109.13c-1.214-1.661-0.853-4.011,0.807-5.238c1.411-1.044,3.611-0.795,5.118,0.583l58.984,53.926
			c2.925,2.674,7.152,3.367,10.78,1.77c3.626-1.598,5.967-5.188,5.967-9.15v-89.89c0.118,0.069,0.241,0.135,0.36,0.203
			c0.389,0.224,0.783,0.447,1.182,0.667c0.203,0.112,0.406,0.225,0.611,0.336c0.464,0.251,0.935,0.499,1.411,0.744
			c0.139,0.072,0.275,0.145,0.415,0.216c0.62,0.315,1.25,0.626,1.889,0.932c0.144,0.069,0.292,0.136,0.436,0.204
			c0.5,0.236,1.005,0.47,1.516,0.701c0.217,0.098,0.436,0.194,0.654,0.291c0.459,0.203,0.922,0.404,1.39,0.603
			c0.224,0.095,0.447,0.19,0.672,0.284c0.516,0.215,1.037,0.427,1.563,0.636c0.17,0.068,0.338,0.137,0.509,0.204
			c0.705,0.277,1.417,0.55,2.139,0.817c0.09,0.033,0.182,0.065,0.272,0.098c0.628,0.231,1.261,0.458,1.901,0.681
			c0.22,0.077,0.442,0.152,0.663,0.228c0.526,0.18,1.055,0.359,1.589,0.534c0.24,0.079,0.481,0.158,0.722,0.236
			c0.558,0.18,1.121,0.358,1.688,0.533c0.2,0.062,0.399,0.125,0.6,0.186c1.542,0.469,3.112,0.919,4.708,1.349
			c0.216,0.058,0.435,0.115,0.652,0.173c0.587,0.156,1.176,0.309,1.77,0.459c0.255,0.065,0.511,0.129,0.767,0.192
			c0.592,0.147,1.188,0.291,1.787,0.433c0.227,0.054,0.454,0.109,0.682,0.162c0.804,0.187,1.613,0.371,2.427,0.549
			c0.016,0.003,0.031,0.007,0.047,0.01c0.845,0.184,1.697,0.363,2.553,0.537c0.21,0.043,0.422,0.084,0.633,0.126
			c0.641,0.128,1.283,0.254,1.93,0.377c0.267,0.051,0.535,0.101,0.804,0.15c0.615,0.114,1.233,0.226,1.853,0.335
			c0.257,0.045,0.514,0.091,0.772,0.135c0.737,0.127,1.477,0.25,2.22,0.37c0.13,0.021,0.259,0.043,0.39,0.064
			c0.88,0.14,1.765,0.275,2.653,0.405c0.204,0.03,0.409,0.058,0.614,0.087c0.678,0.097,1.357,0.193,2.04,0.284
			c0.29,0.039,0.58,0.077,0.871,0.115c0.622,0.081,1.246,0.16,1.872,0.236c0.285,0.035,0.571,0.07,0.857,0.104
			c0.702,0.083,1.407,0.163,2.113,0.24c0.197,0.021,0.394,0.044,0.591,0.065c0.906,0.097,1.815,0.189,2.727,0.276
			c0.175,0.017,0.352,0.031,0.527,0.048c0.73,0.068,1.46,0.133,2.193,0.195c0.3,0.025,0.6,0.049,0.901,0.073
			c0.627,0.05,1.254,0.098,1.882,0.144c0.311,0.023,0.622,0.045,0.934,0.067c0.663,0.046,1.328,0.088,1.993,0.129
			c0.258,0.016,0.516,0.033,0.774,0.048c0.917,0.053,1.834,0.102,2.753,0.145c0.125,0.006,0.25,0.01,0.374,0.016
			c0.793,0.036,1.587,0.069,2.382,0.097c0.304,0.011,0.607,0.02,0.911,0.03c0.63,0.021,1.26,0.039,1.89,0.055
			c0.325,0.008,0.65,0.016,0.975,0.023c0.643,0.014,1.285,0.025,1.928,0.034c0.289,0.004,0.578,0.009,0.867,0.012
			c0.921,0.01,1.843,0.016,2.764,0.016s1.843-0.006,2.764-0.016c0.289-0.003,0.578-0.008,0.867-0.012
			c0.643-0.009,1.286-0.02,1.928-0.034c0.325-0.007,0.65-0.015,0.975-0.023c0.63-0.016,1.26-0.034,1.89-0.055
			c0.304-0.01,0.607-0.019,0.911-0.03c0.795-0.029,1.589-0.061,2.382-0.097c0.125-0.006,0.25-0.01,0.374-0.016
			c0.919-0.043,1.837-0.092,2.753-0.145c0.258-0.015,0.516-0.032,0.774-0.048c0.665-0.041,1.33-0.083,1.993-0.129
			c0.312-0.021,0.623-0.044,0.934-0.067c0.628-0.046,1.256-0.094,1.882-0.144c0.3-0.024,0.601-0.048,0.901-0.073
			c0.732-0.062,1.462-0.127,2.191-0.194c0.176-0.017,0.354-0.031,0.53-0.048c0.911-0.087,1.82-0.179,2.726-0.275
			c0.198-0.021,0.394-0.044,0.591-0.065c0.706-0.077,1.41-0.157,2.113-0.24c0.286-0.034,0.571-0.069,0.857-0.104
			c0.625-0.076,1.249-0.155,1.872-0.236c0.291-0.038,0.581-0.076,0.871-0.115c0.682-0.092,1.362-0.187,2.04-0.284
			c0.204-0.029,0.41-0.057,0.614-0.087c0.888-0.13,1.773-0.265,2.653-0.405c0.13-0.021,0.259-0.043,0.39-0.064
			c0.743-0.12,1.483-0.243,2.22-0.37c0.258-0.044,0.515-0.09,0.772-0.135c0.62-0.109,1.238-0.22,1.853-0.335
			c0.268-0.05,0.536-0.1,0.804-0.15c0.646-0.123,1.289-0.249,1.93-0.377c0.211-0.042,0.423-0.083,0.633-0.126
			c0.856-0.174,1.708-0.353,2.553-0.537c0.016-0.003,0.031-0.007,0.047-0.01c0.815-0.178,1.623-0.362,2.427-0.549
			c0.228-0.053,0.454-0.108,0.682-0.162c0.599-0.142,1.194-0.286,1.787-0.433c0.256-0.063,0.512-0.128,0.768-0.192
			c0.593-0.15,1.181-0.303,1.767-0.458c0.219-0.058,0.438-0.115,0.656-0.174c1.596-0.43,3.165-0.88,4.707-1.349
			c0.201-0.061,0.4-0.124,0.6-0.186c0.566-0.175,1.129-0.352,1.688-0.533c0.242-0.078,0.482-0.157,0.723-0.236
			c0.533-0.175,1.061-0.353,1.586-0.533c0.223-0.076,0.446-0.152,0.667-0.229c0.639-0.223,1.272-0.45,1.899-0.681
			c0.09-0.033,0.182-0.065,0.272-0.099c0.721-0.267,1.434-0.54,2.139-0.817c0.171-0.067,0.339-0.136,0.509-0.204
			c0.526-0.209,1.047-0.421,1.563-0.636c0.225-0.094,0.449-0.189,0.672-0.284c0.468-0.198,0.931-0.4,1.39-0.603
			c0.219-0.097,0.438-0.193,0.654-0.291c0.511-0.231,1.016-0.465,1.516-0.701c0.145-0.069,0.292-0.135,0.436-0.204
			c0.639-0.306,1.268-0.617,1.889-0.932c0.14-0.071,0.276-0.144,0.415-0.216c0.476-0.245,0.947-0.493,1.411-0.744
			c0.206-0.111,0.408-0.224,0.611-0.336c0.398-0.22,0.792-0.442,1.182-0.667c0.118-0.068,0.242-0.134,0.36-0.203v284.933
			c0,3.867,2.23,7.388,5.727,9.041c3.497,1.651,7.633,1.141,10.621-1.313l44.389-36.464c0.27-0.222,0.583-0.31,0.928-0.257
			c0.346,0.052,0.62,0.226,0.813,0.516c0,0.001,0,0.001,0,0.001C445.146,330.614,445.133,331.161,444.838,331.563z"/>
	</g>
</g>
<g>
	<g>
		<path d="M354.153,41.655c-2.806-4.756-8.938-6.337-13.694-3.53c-16.577,9.781-47.713,7.502-58.316,5.798
			c-5.451-0.888-10.584,2.816-11.471,8.267c-0.886,5.451,2.815,10.588,8.266,11.474c0.878,0.143,11.216,1.772,24.64,1.772
			c14.78,0,33.299-1.976,47.045-10.087C355.379,52.542,356.96,46.411,354.153,41.655z"/>
	</g>
</g>
<g>
	<g>
		<path d="M365.251,187.449c-3.607-10.378-9.463-17.689-13.327-21.698v-57.548c0-5.522-4.477-10-10-10s-10,4.478-10,10v61.866
			c0,3.05,1.392,5.933,3.779,7.83c0.07,0.055,7.141,6.001,10.657,16.117c4.958,14.263,0.808,30.075-12.334,46.998
			c-1.362,1.755-2.102,3.912-2.102,6.134v31.439c0,5.522,4.477,10,10,10s10-4.478,10-10v-28.094
			C371.599,223.584,370.119,201.453,365.251,187.449z"/>
	</g>
</g>
<g>
	<g>
		<path d="M309.168,208.211c-2.642-8.967-6.948-15.915-9.675-19.721v-18.795c0-5.522-4.477-10-10-10s-10,4.478-10,10v22.198
			c0,2.411,0.871,4.74,2.453,6.56c0.859,0.988,20.8,24.465,0.167,47.038c-1.685,1.844-2.619,4.25-2.619,6.747v74.564
			c0,5.522,4.477,10,10,10s10-4.478,10-10v-70.858C313.797,238.277,312.756,220.389,309.168,208.211z"/>
	</g>
</g>
<g>
	<g>
		<path d="M299.297,127.169c-0.13-0.63-0.32-1.26-0.57-1.87c-0.25-0.6-0.56-1.18-0.92-1.72c-0.36-0.55-0.78-1.061-1.24-1.521
			c-2.32-2.33-5.78-3.39-9.03-2.74c-0.64,0.131-1.26,0.32-1.87,0.57c-0.6,0.25-1.18,0.561-1.72,0.92c-0.55,0.37-1.06,0.79-1.52,1.25
			c-0.47,0.46-0.88,0.971-1.25,1.521c-0.36,0.54-0.67,1.12-0.92,1.72c-0.25,0.61-0.44,1.24-0.57,1.87
			c-0.13,0.649-0.19,1.31-0.19,1.96c0,0.65,0.06,1.31,0.19,1.95c0.13,0.641,0.32,1.271,0.57,1.871c0.25,0.6,0.56,1.18,0.92,1.729
			c0.37,0.54,0.78,1.05,1.25,1.521c0.46,0.46,0.97,0.88,1.52,1.239c0.54,0.36,1.12,0.67,1.72,0.92c0.61,0.25,1.23,0.44,1.87,0.57
			c0.65,0.13,1.3,0.2,1.96,0.2c2.63,0,5.21-1.07,7.07-2.93c0.46-0.471,0.88-0.98,1.24-1.521c0.36-0.55,0.67-1.13,0.92-1.729
			c0.25-0.601,0.44-1.23,0.57-1.87c0.13-0.641,0.2-1.3,0.2-1.95C299.497,128.479,299.427,127.818,299.297,127.169z"/>
	</g>
</g>
<g>
	<g>
		<path d="M273.444,454.544h-9.048c-22.949-14.947-47.383-7.499-59.656,0h-65.508c-5.523,0-10,4.478-10,10c0,5.522,4.477,10,10,10
			h68.514c2.115,0,4.127-0.636,5.836-1.88c0.871-0.618,21.566-14.962,41.756-0.072c1.719,1.268,3.799,1.952,5.936,1.952h12.17
			c5.523,0,10-4.478,10-10C283.444,459.022,278.967,454.544,273.444,454.544z"/>
	</g>
</g>
<g>
	<g>
		<path d="M323.816,462.59c-0.13-0.64-0.32-1.271-0.57-1.87c-0.25-0.61-0.56-1.19-0.92-1.729c-0.36-0.551-0.78-1.061-1.24-1.521
			c-0.46-0.46-0.98-0.88-1.52-1.24c-0.55-0.359-1.13-0.67-1.73-0.92c-0.6-0.25-1.23-0.439-1.87-0.569c-1.29-0.261-2.62-0.261-3.91,0
			c-0.64,0.13-1.27,0.319-1.87,0.569c-0.6,0.25-1.18,0.561-1.73,0.92c-0.54,0.36-1.06,0.78-1.52,1.24
			c-0.46,0.46-0.88,0.97-1.24,1.521c-0.36,0.539-0.67,1.119-0.92,1.729c-0.25,0.6-0.44,1.23-0.57,1.87c-0.13,0.64-0.2,1.3-0.2,1.95
			c0,2.64,1.07,5.21,2.93,7.069c0.46,0.46,0.98,0.881,1.52,1.25c0.55,0.36,1.13,0.67,1.73,0.92c0.6,0.25,1.23,0.44,1.87,0.57
			c0.65,0.13,1.3,0.19,1.95,0.19c0.66,0,1.31-0.061,1.96-0.19c0.64-0.13,1.27-0.32,1.87-0.57c0.6-0.25,1.18-0.56,1.73-0.92
			c0.54-0.369,1.06-0.79,1.52-1.25c1.86-1.859,2.92-4.43,2.92-7.069C324.006,463.89,323.946,463.229,323.816,462.59z"/>
	</g>
</g>
<g>
</g>
<g>
</g>
<g>
</g>
<g>
</g>
<g>
</g>
<g>
</g>
<g>
</g>
<g>
</g>
<g>
</g>
<g>
</g>
<g>
</g>
<g>
</g>
<g>
</g>
<g>
</g>
<g>
</g>
</svg>
