<svg xmlns="http://www.w3.org/2000/svg" viewBox="0 0 512 512"><path d="M461.511 319.106a21.226 21.226 0 0 0-14.513-9.204 21.243 21.243 0 0 0-16.564 4.584l-28.042 23.036V41.268a9.957 9.957 0 0 0-2.712-6.833C388.302 11.781 342.83 0 297.831 0 245.871 0 193.27 15.705 193.27 45.723v95.22l-42.237-38.615c-8.571-7.837-21.402-8.635-30.506-1.9-10.473 7.745-12.744 22.602-5.062 33.116l57.269 78.386 20.536 28.609V355.59H84.215c-24.469 0-37.271 39.342-37.271 78.205S59.746 512 84.215 512h238.112c12.727 0 22.296-10.646 28.551-26.331 16.821-4.06 40.367-12.413 48.595-28.346a9.97 9.97 0 0 0 2.92-7.062v-27.378l58.547-79.457c5.271-7.154 5.5-16.927.571-24.32zM297.831 20c52.111 0 81.644 15.409 84.337 24.418a4.623 4.623 0 0 1 .223 1.305c0 8.73-29.847 25.723-84.561 25.723-1.71 0-3.395-.017-5.056-.049-43.188-.843-69.857-12.382-77.337-21.073-1.438-1.671-2.167-3.237-2.167-4.601C213.271 36.992 243.118 20 297.831 20zM94.213 478.311C90.077 488.653 85.691 492 84.215 492c-1.476 0-5.862-3.346-9.998-13.689-4.622-11.56-7.273-27.786-7.273-44.516s2.651-32.956 7.273-44.516c4.136-10.343 8.522-13.689 9.998-13.689 1.476 0 5.863 3.347 9.998 13.689 4.622 11.56 7.273 27.785 7.273 44.516 0 16.731-2.651 32.956-7.273 44.516zm245.356-41.528c-.005.254-.014.507-.02.761-.018.754-.038 1.508-.067 2.258-.009.25-.022.499-.032.748a147.539 147.539 0 0 1-.328 5.475l-.022.288c-.562 7.032-1.59 13.771-3.03 19.877l-.024.1a99.36 99.36 0 0 1-.59 2.362l-.08.305a93.242 93.242 0 0 1-.583 2.096l-.118.411a85.064 85.064 0 0 1-.61 1.973l-.125.399a73.938 73.938 0 0 1-1.617 4.48c-4.134 10.338-8.52 13.684-9.996 13.684H109.919c.021-.042.041-.088.063-.13.434-.859.856-1.739 1.266-2.639.032-.069.064-.137.095-.207.435-.963.857-1.947 1.265-2.954l.014-.035c.403-.997.791-2.016 1.167-3.052l.097-.273c.348-.97.685-1.957 1.009-2.959l.118-.367c.317-.991.622-1.996.916-3.016l.105-.365c.3-1.055.588-2.124.864-3.207l.061-.236c.289-1.146.565-2.307.827-3.481l.04-.184c.25-1.13.488-2.273.713-3.426l.071-.373c.212-1.104.413-2.218.602-3.341l.072-.431c.186-1.128.361-2.264.524-3.408l.053-.371c.169-1.209.326-2.426.469-3.649l.018-.146c.147-1.266.279-2.539.397-3.817l.022-.253c.11-1.209.208-2.424.292-3.643l.027-.396c.08-1.187.148-2.377.204-3.57l.019-.404a177.32 177.32 0 0 0 0-15.738l-.019-.404a175.38 175.38 0 0 0-.204-3.57l-.027-.396a174.197 174.197 0 0 0-.292-3.643l-.022-.253c-.118-1.278-.25-2.551-.397-3.817l-.018-.146c-.143-1.224-.299-2.44-.469-3.649l-.053-.371c-.163-1.144-.338-2.28-.524-3.408l-.072-.431c-.189-1.123-.39-2.237-.602-3.341l-.071-.373a135.433 135.433 0 0 0-.713-3.426l-.04-.184a130.333 130.333 0 0 0-.827-3.481l-.061-.236a120.732 120.732 0 0 0-.864-3.207l-.105-.365a108.818 108.818 0 0 0-1.034-3.383 101.505 101.505 0 0 0-1.009-2.959l-.097-.273a90.09 90.09 0 0 0-1.167-3.052l-.014-.035a79.942 79.942 0 0 0-1.265-2.954c-.031-.07-.064-.138-.095-.207-.41-.9-.832-1.78-1.266-2.639-.021-.042-.041-.088-.063-.13h212.408c1.476 0 5.862 3.347 9.998 13.689 4.622 11.56 7.273 27.785 7.273 44.516 0 .996-.011 1.991-.029 2.982zm105.269-105.22l-60.497 82.104a10 10 0 0 0-1.949 5.932v26.837a10.19 10.19 0 0 0-.257.691c-1.529 4.632-9.871 10.935-25.001 15.988 1.275-7.19 2.058-14.838 2.34-22.752.027-.721.049-1.442.067-2.164.006-.262.015-.522.02-.785.025-1.206.037-2.412.037-3.618 0-38.863-12.802-78.205-37.271-78.205H213.271V268.4l13.292 18.517a9.985 9.985 0 0 0 8.132 4.17c2.019 0 4.058-.61 5.823-1.877 4.486-3.221 5.513-9.469 2.292-13.955l-30.227-42.11a10.02 10.02 0 0 0-1.237-2.271l-79.73-109.13a3.766 3.766 0 0 1 .807-5.238c1.411-1.044 3.611-.795 5.118.583l58.984 53.926a10 10 0 0 0 16.747-7.38v-89.89c.118.069.241.135.36.203.389.224.783.447 1.182.667.203.112.406.225.611.336.464.251.935.499 1.411.744.139.072.275.145.415.216.62.315 1.25.626 1.889.932.144.069.292.136.436.204.5.236 1.005.47 1.516.701.217.098.436.194.654.291.459.203.922.404 1.39.603.224.095.447.19.672.284.516.215 1.037.427 1.563.636.17.068.338.137.509.204.705.277 1.417.55 2.139.817l.272.098c.628.231 1.261.458 1.901.681.22.077.442.152.663.228a128.527 128.527 0 0 0 2.311.77c.558.18 1.121.358 1.688.533.2.062.399.125.6.186 1.542.469 3.112.919 4.708 1.349l.652.173a147.327 147.327 0 0 0 2.537.651c.592.147 1.188.291 1.787.433.227.054.454.109.682.162.804.187 1.613.371 2.427.549l.047.01c.845.184 1.697.363 2.553.537.21.043.422.084.633.126a212.795 212.795 0 0 0 2.734.527c.615.114 1.233.226 1.853.335.257.045.514.091.772.135.737.127 1.477.25 2.22.37l.39.064c.88.14 1.765.275 2.653.405.204.03.409.058.614.087a213.219 213.219 0 0 0 4.783.635 223.163 223.163 0 0 0 2.97.344l.591.065c.906.097 1.815.189 2.727.276.175.017.352.031.527.048a258.848 258.848 0 0 0 3.094.268 292.168 292.168 0 0 0 2.816.211c.663.046 1.328.088 1.993.129l.774.048c.917.053 1.834.102 2.753.145l.374.016c.793.036 1.587.069 2.382.097l.911.03a238.444 238.444 0 0 0 4.793.112l.867.012a254.671 254.671 0 0 0 5.528 0l.867-.012a247.057 247.057 0 0 0 4.793-.112l.911-.03c.795-.029 1.589-.061 2.382-.097l.374-.016c.919-.043 1.837-.092 2.753-.145l.774-.048c.665-.041 1.33-.083 1.993-.129.312-.021.623-.044.934-.067.628-.046 1.256-.094 1.882-.144l.901-.073a307.47 307.47 0 0 0 2.191-.194c.176-.017.354-.031.53-.048.911-.087 1.82-.179 2.726-.275l.591-.065c.706-.077 1.41-.157 2.113-.24l.857-.104a227.734 227.734 0 0 0 4.783-.635c.204-.029.41-.057.614-.087.888-.13 1.773-.265 2.653-.405l.39-.064c.743-.12 1.483-.243 2.22-.37.258-.044.515-.09.772-.135.62-.109 1.238-.22 1.853-.335l.804-.15a219.75 219.75 0 0 0 1.93-.377c.211-.042.423-.083.633-.126.856-.174 1.708-.353 2.553-.537l.047-.01c.815-.178 1.623-.362 2.427-.549.228-.053.454-.108.682-.162.599-.142 1.194-.286 1.787-.433l.768-.192c.593-.15 1.181-.303 1.767-.458.219-.058.438-.115.656-.174 1.596-.43 3.165-.88 4.707-1.349.201-.061.4-.124.6-.186.566-.175 1.129-.352 1.688-.533l.723-.236c.533-.175 1.061-.353 1.586-.533.223-.076.446-.152.667-.229.639-.223 1.272-.45 1.899-.681.09-.033.182-.065.272-.099.721-.267 1.434-.54 2.139-.817.171-.067.339-.136.509-.204a101.77 101.77 0 0 0 3.625-1.523c.219-.097.438-.193.654-.291.511-.231 1.016-.465 1.516-.701.145-.069.292-.135.436-.204a92.234 92.234 0 0 0 1.889-.932c.14-.071.276-.144.415-.216.476-.245.947-.493 1.411-.744.206-.111.408-.224.611-.336.398-.22.792-.442 1.182-.667.118-.068.242-.134.36-.203v284.933a10 10 0 0 0 16.348 7.728l44.389-36.464c.27-.222.583-.31.928-.257.346.052.62.226.813.516v.001a1.2 1.2 0 0 1-.039 1.36z"/><path d="M354.153 41.655c-2.806-4.756-8.938-6.337-13.694-3.53-16.577 9.781-47.713 7.502-58.316 5.798-5.451-.888-10.584 2.816-11.471 8.267-.886 5.451 2.815 10.588 8.266 11.474.878.143 11.216 1.772 24.64 1.772 14.78 0 33.299-1.976 47.045-10.087 4.756-2.807 6.337-8.938 3.53-13.694zm11.098 145.794c-3.607-10.378-9.463-17.689-13.327-21.698v-57.548c0-5.522-4.477-10-10-10s-10 4.478-10 10v61.866c0 3.05 1.392 5.933 3.779 7.83.07.055 7.141 6.001 10.657 16.117 4.958 14.263.808 30.075-12.334 46.998a10.004 10.004 0 0 0-2.102 6.134v31.439c0 5.522 4.477 10 10 10s10-4.478 10-10v-28.094c19.675-26.909 18.195-49.04 13.327-63.044zm-56.083 20.762c-2.642-8.967-6.948-15.915-9.675-19.721v-18.795c0-5.522-4.477-10-10-10s-10 4.478-10 10v22.198c0 2.411.871 4.74 2.453 6.56.859.988 20.8 24.465.167 47.038a10 10 0 0 0-2.619 6.747v74.564c0 5.522 4.477 10 10 10s10-4.478 10-10v-70.858c14.303-17.667 13.262-35.555 9.674-47.733zm-9.871-81.042c-.13-.63-.32-1.26-.57-1.87-.25-.6-.56-1.18-.92-1.72a9.578 9.578 0 0 0-1.24-1.521c-2.32-2.33-5.78-3.39-9.03-2.74-.64.131-1.26.32-1.87.57-.6.25-1.18.561-1.72.92-.55.37-1.06.79-1.52 1.25-.47.46-.88.971-1.25 1.521-.36.54-.67 1.12-.92 1.72-.25.61-.44 1.24-.57 1.87-.13.649-.19 1.31-.19 1.96a9.84 9.84 0 0 0 .76 3.821c.25.6.56 1.18.92 1.729.37.54.78 1.05 1.25 1.521.46.46.97.88 1.52 1.239.54.36 1.12.67 1.72.92.61.25 1.23.44 1.87.57.65.13 1.3.2 1.96.2 2.63 0 5.21-1.07 7.07-2.93.46-.471.88-.98 1.24-1.521a10.122 10.122 0 0 0 1.69-5.549c0-.65-.07-1.311-.2-1.96zm-25.853 327.375h-9.048c-22.949-14.947-47.383-7.499-59.656 0h-65.508c-5.523 0-10 4.478-10 10s4.477 10 10 10h68.514c2.115 0 4.127-.636 5.836-1.88.871-.618 21.566-14.962 41.756-.072a9.999 9.999 0 0 0 5.936 1.952h12.17c5.523 0 10-4.478 10-10s-4.477-10-10-10zm50.372 8.046c-.13-.64-.32-1.271-.57-1.87-.25-.61-.56-1.19-.92-1.729a9.533 9.533 0 0 0-1.24-1.521c-.46-.46-.98-.88-1.52-1.24a10.096 10.096 0 0 0-3.6-1.489 9.86 9.86 0 0 0-3.91 0 10.096 10.096 0 0 0-5.12 2.729c-.46.46-.88.97-1.24 1.521a10.098 10.098 0 0 0-1.69 5.549c0 2.64 1.07 5.21 2.93 7.069.46.46.98.881 1.52 1.25a10.098 10.098 0 0 0 3.6 1.49c.65.13 1.3.19 1.95.19.66 0 1.31-.061 1.96-.19a10.098 10.098 0 0 0 3.6-1.49c.54-.369 1.06-.79 1.52-1.25a10.046 10.046 0 0 0 2.73-9.019z"/></svg>